Coordinates
version=1
nRows=38
nColumns=12
inDegrees=yes

Units are S.I. units (second, meters, Newtons, ...)
Angles are in degrees

endheader
time	SC_y	SC_z	SC_x	AC_y	AC_z	AC_x	GH_y	GH_z	GH_yy	EL_x	PS_y
       0.0              -37.89          12.01           72.2          69.85           9.94         -5.652         -143.7          -16.7          112.6            8.2          73.58
    0.0439              -37.89          12.02           72.2          69.85          9.938         -5.649         -143.7         -16.68          112.6            8.2          73.57
   0.08779               -37.9          12.02          72.21          69.85          9.936         -5.645         -143.7         -16.67          112.6          8.201          73.57
    0.1317               -37.9          12.03          72.21          69.85          9.934         -5.642         -143.7         -16.65          112.6          8.201          73.57
    0.1756               -37.9          12.03          72.21          69.85          9.932         -5.638         -143.7         -16.64          112.6          8.202          73.56
    0.2195               -37.9          12.04          72.21          69.84           9.93         -5.634         -143.7         -16.62          112.7          8.202          73.56
    0.2634               -37.9          12.04          72.21          69.84          9.928          -5.63         -143.7          -16.6          112.7          8.203          73.55
    0.3073               -37.9          12.05          72.22          69.84          9.925         -5.625         -143.7         -16.58          112.7          8.203          73.55
    0.3512               -37.9          12.05          72.22          69.84          9.923          -5.62         -143.7         -16.56          112.7          8.204          73.55
    0.3951               -37.9          12.06          72.22          69.83           9.92         -5.615         -143.7         -16.54          112.7          8.204          73.54
     0.439               -37.9          12.07          72.22          69.83          9.917         -5.609         -143.7         -16.51          112.7          8.205          73.53
    0.4829               -37.9          12.08          72.23          69.83          9.914         -5.603         -143.7         -16.49          112.7          8.206          73.53
    0.5268               -37.9          12.08          72.23          69.82           9.91         -5.596         -143.7         -16.46          112.7          8.207          73.52
    0.5706               -37.9          12.09          72.23          69.82          9.906         -5.589         -143.7         -16.43          112.7          8.207          73.52
    0.6145               -37.9           12.1          72.24          69.81          9.902         -5.581         -143.7         -16.39          112.7          8.208          73.51
    0.6584               -37.9          12.11          72.24          69.81          9.898         -5.573         -143.8         -16.36          112.7          8.209           73.5
    0.7023               -37.9          12.13          72.25           69.8          9.893         -5.564         -143.8         -16.32          112.7           8.21          73.49
    0.7462               -37.9          12.14          72.25           69.8          9.888         -5.554         -143.8         -16.28          112.7          8.212          73.48
    0.7901               -37.9          12.15          72.26          69.79          9.882         -5.543         -143.8         -16.23          112.7          8.213          73.47
     0.834              -37.91          12.17          72.26          69.79          9.876         -5.531         -143.8         -16.18          112.8          8.214          73.46
    0.8779              -37.91          12.18          72.27          69.78          9.869         -5.518         -143.8         -16.12          112.8          8.216          73.45
    0.9218              -37.91           12.2          72.28          69.77          9.861         -5.503         -143.8         -16.06          112.8          8.218          73.44
    0.9657              -37.91          12.22          72.28          69.76          9.852         -5.487         -143.8         -15.99          112.8           8.22          73.42
      1.01              -37.91          12.24          72.29          69.75          9.843          -5.47         -143.9         -15.92          112.8          8.222           73.4
     1.054              -37.91          12.27           72.3          69.74          9.833          -5.45         -143.9         -15.83          112.8          8.224          73.39
     1.097              -37.91          12.29          72.31          69.73          9.821         -5.428         -143.9         -15.74          112.9          8.227          73.37
     1.141              -37.92          12.33          72.32          69.71          9.808         -5.404         -143.9         -15.63          112.9           8.23          73.34
     1.185              -37.92          12.36          72.34           69.7          9.793         -5.376         -144.0         -15.52          112.9          8.233          73.32
     1.229              -37.92           12.4          72.35          69.68          9.777         -5.345         -144.0         -15.38          112.9          8.237          73.29
     1.273              -37.93          12.44          72.37          69.66          9.758          -5.31         -144.1         -15.23          113.0          8.241          73.26
     1.317              -37.93          12.49          72.39          69.64          9.737         -5.269         -144.1         -15.06          113.0          8.246          73.22
     1.361              -37.93          12.55          72.41          69.61          9.712         -5.223         -144.1         -14.86          113.1          8.251          73.17
     1.405              -37.94          12.62          72.44          69.58          9.684         -5.169         -144.2         -14.63          113.1          8.258          73.12
     1.449              -37.94           12.7          72.47          69.55          9.651         -5.107         -144.3         -14.37          113.2          8.265          73.07
     1.492              -37.95          12.79           72.5          69.51          9.612         -5.035         -144.4         -14.05          113.3          8.274           73.0
     1.536              -37.96           12.9          72.54          69.46          9.567         -4.949         -144.5         -13.69          113.3          8.284          72.92
      1.58              -37.97          13.02          72.59           69.4          9.513         -4.847         -144.6         -13.25          113.4          8.296          72.82
     1.624              -37.98          13.18          72.65          69.33          9.448         -4.725         -144.7         -12.73          113.6          8.311          72.71
